<svg width="49" height="49" viewBox="0 0 49 49" fill="none" xmlns="http://www.w3.org/2000/svg">
<path d="M19.6578 29.8257H17.6038V27.5683H27.1465C27.1828 27.5683 27.2143 27.5683 27.2418 27.5683C27.2854 27.5683 27.3169 27.5747 27.3354 27.5779C27.5995 27.6239 27.8389 27.7616 28.0112 27.9666C28.1495 28.1311 28.2379 28.3316 28.266 28.5445C28.2942 28.7574 28.2609 28.9739 28.1701 29.1686C28.0793 29.3633 27.9348 29.5281 27.7535 29.6437C27.5722 29.7592 27.3616 29.8207 27.1465 29.8209H19.6578V29.8257ZM15.5303 29.8257V36H27.157C29.0953 35.9957 30.9531 35.2249 32.3237 33.8563C33.6943 32.4876 34.4662 30.6326 34.4705 28.697C34.4705 28.1408 34.406 27.5864 34.2783 27.045C34.0648 26.1291 33.6751 25.2633 33.131 24.4957C33.8992 23.4025 34.3525 22.1199 34.4415 20.7874C34.5305 19.4549 34.2518 18.1235 33.6357 16.9382C33.0196 15.7528 32.0897 14.7589 30.9473 14.0646C29.8049 13.3703 28.4936 13.0021 27.1562 13.0002H15.5295V29.8257H15.5303ZM17.6038 19.1769H27.1465C27.4318 19.1734 27.7079 19.2779 27.9193 19.4692C28.1307 19.6606 28.2618 19.9247 28.2863 20.2085C28.3108 20.4924 28.2269 20.775 28.0515 20.9997C27.876 21.2243 27.622 21.3744 27.3403 21.4198C27.1215 21.415 26.9002 21.4198 26.6782 21.4344H17.6046V19.1769H17.6038ZM17.6038 25.4978V23.5048H27.1473C27.199 23.5048 27.2531 23.5048 27.3088 23.5C27.8747 23.4494 28.4191 23.2591 28.8931 22.9462C29.3671 22.6334 29.7557 22.2078 30.0241 21.7077C30.2617 21.2201 30.3713 20.6803 30.3428 20.1389C30.3142 19.5974 30.1484 19.0721 29.8608 18.6121C29.5732 18.1522 29.1734 17.7728 28.6988 17.5094C28.2241 17.246 27.6903 17.1074 27.1473 17.1064H17.6046V15.0731H27.1562C28.006 15.0735 28.8429 15.2802 29.5949 15.6752C30.3469 16.0703 30.9915 16.642 31.4732 17.3411C31.9549 18.0401 32.2592 18.8456 32.3599 19.6882C32.4607 20.5307 32.3548 21.3851 32.0515 22.1777C31.685 23.1093 31.0356 23.9029 30.1945 24.4473L30.2647 24.4981C31.2721 25.2331 31.9822 26.3044 32.2663 27.5175C32.4415 28.2846 32.4417 29.0812 32.2668 29.8483C32.092 30.6155 31.7466 31.3336 31.2562 31.9494C30.7658 32.5652 30.1429 33.063 29.4338 33.4059C28.7246 33.7488 27.9473 33.928 27.1594 33.9303H17.6046V31.8962H27.1473C27.9504 31.8955 28.7239 31.5936 29.3146 31.0503C29.9053 30.507 30.2701 29.762 30.3366 28.9628C30.4032 28.1636 30.1666 27.3686 29.6739 26.7354C29.1811 26.1022 28.4681 25.6769 27.6762 25.5438C27.5785 25.5277 27.4897 25.5156 27.4121 25.5099C27.3217 25.5019 27.2329 25.4978 27.1473 25.4978H17.6038Z" fill="white"/>
<path d="M0 0V-1H-1V0H0ZM49 0H50V-1H49V0ZM49 49V50H50V49H49ZM0 49H-1V50H0V49ZM0 1H49V-1H0V1ZM48 0V49H50V0H48ZM49 48H0V50H49V48ZM1 49V0H-1V49H1Z" fill="white"/>
</svg>
